<?xml version="1.0" encoding="UTF-8"?>
<svg width="133px" height="133px" viewBox="0 0 133 133" version="1.1" xmlns="http://www.w3.org/2000/svg" xmlns:xlink="http://www.w3.org/1999/xlink">
    <!-- Generator: Sketch 64 (93537) - https://sketch.com -->
    <title>Logo</title>
    <desc>Created with Sketch.</desc>
    <g id="Page-1" stroke="none" stroke-width="1" fill="none" fill-rule="evenodd">
        <g id="Desktop-HD" transform="translate(-587.000000, -448.000000)" fill="#FFFFFF" fill-rule="nonzero">
            <path d="M587,448 L720,448 L720,581 L587,581 L587,448 Z M698,539.892655 C698,536.314483 697.364605,533.308863 696.093797,530.875706 C694.822989,528.442549 693.152809,526.50142 691.083207,525.05226 C689.013605,523.6031 686.653569,522.565446 684.003026,521.939266 C681.352483,521.313086 678.665672,521 675.942511,521 L662,521 L662,559 L676.378215,559 C679.028758,559 681.642952,558.633243 684.220877,557.899717 C686.798803,557.166192 689.113454,556.021194 691.164902,554.464689 C693.216349,552.908184 694.868375,550.922328 696.121029,548.507062 C697.373682,546.091796 698,543.220356 698,539.892655 Z M633.291883,507 L644,507 L634.094991,490.737288 C636.557871,489.985872 638.485313,488.73353 639.877375,486.980226 C641.269437,485.226921 641.965458,483.06216 641.965458,480.485876 C641.965458,478.303191 641.554984,476.47835 640.734024,475.0113 C639.913064,473.544249 638.815494,472.36347 637.441278,471.468926 C636.067063,470.574383 634.514401,469.939268 632.783247,469.563559 C631.052093,469.187851 629.276348,469 627.455959,469 L613,469 L613,507 L621.994819,507 L621.994819,491.918079 L625.100173,491.918079 L633.291883,507 Z M696,501.569705 L689.469512,495.414209 C688.628044,496.58669 687.512202,497.539317 686.121951,498.272118 C684.7317,499.004919 683.103668,499.371314 681.237805,499.371314 C679.628041,499.371314 678.146348,499.078197 676.792683,498.491957 C675.439018,497.905716 674.277444,497.090488 673.307927,496.046247 C672.33841,495.002005 671.579271,493.747103 671.030488,492.281501 C670.481705,490.8159 670.207317,489.203762 670.207317,487.44504 C670.207317,485.722958 670.481705,484.1383 671.030488,482.691019 C671.579271,481.243737 672.347556,479.988835 673.335366,478.926273 C674.323176,477.863712 675.503042,477.030164 676.875,476.425603 C678.246958,475.821042 679.75609,475.518767 681.402439,475.518767 C682.902447,475.518767 684.365847,475.811883 685.792683,476.398123 C687.219519,476.984364 688.371947,477.882031 689.25,479.091152 L695.615854,472.715817 C693.969504,470.847175 691.820135,469.427395 689.167683,468.456434 C686.51523,467.485473 683.817087,467 681.073171,467 C678.109741,467 675.347574,467.476313 672.786585,468.428954 C670.225597,469.381595 667.993912,470.746416 666.091463,472.523458 C664.189015,474.3005 662.698176,476.45307 661.618902,478.981233 C660.539629,481.509396 660,484.330637 660,487.44504 C660,490.486163 660.530482,493.270765 661.591463,495.798928 C662.652444,498.32709 664.115844,500.49798 665.981707,502.311662 C667.84757,504.125344 670.051817,505.526805 672.594512,506.516086 C675.137208,507.505367 677.908522,508 680.908536,508 C684.201236,508 687.109743,507.422928 689.634147,506.268767 C692.158549,505.114605 694.280479,503.548267 696,501.569705 Z M633.291883,559 L644,559 L634.094991,542.737288 C636.557871,541.985872 638.485313,540.73353 639.877375,538.980226 C641.269437,537.226922 641.965458,535.06216 641.965458,532.485876 C641.965458,530.303191 641.554984,528.47835 640.734024,527.0113 C639.913064,525.544249 638.815494,524.36347 637.441278,523.468926 C636.067063,522.574384 634.514401,521.939268 632.783247,521.563559 C631.052093,521.187851 629.276348,521 627.455959,521 L613,521 L613,559 L621.994819,559 L621.994819,543.918079 L625.100173,543.918079 L633.291883,559 Z" id="Logo"></path>
        </g>
    </g>
</svg>